<svg xmlns="http://www.w3.org/2000/svg" xmlns:xlink="http://www.w3.org/1999/xlink" width="512" height="512"><defs><clipPath id="c"><use xlink:href="#a" fill-rule="evenodd" clip-rule="evenodd"/></clipPath><clipPath id="d"><use xlink:href="#b" fill-rule="evenodd" clip-rule="evenodd"/></clipPath><path id="a" d="M512 0v512H0V0z"/><path id="b" d="M444 0c37.56 0 68 30.44 68 68v376c0 37.56-30.44 68-68 68H68c-37.56 0-68-30.44-68-68V68C0 30.44 30.44 0 68 0z"/></defs><path fill="none" d="M512 0v512H0V0z"/><g clip-path="url(#c)"><path fill="#202020" d="M444 0c37.56 0 68 30.44 68 68v376c0 37.56-30.44 68-68 68H68c-37.56 0-68-30.44-68-68V68C0 30.44 30.44 0 68 0z"/><path fill="none" d="M444 0c37.56 0 68 30.44 68 68v376c0 37.56-30.44 68-68 68H68c-37.56 0-68-30.44-68-68V68C0 30.44 30.44 0 68 0z"/><g clip-path="url(#d)"><path fill="#F8C822" fill-rule="evenodd" d="m205.708 133.493 62.806 201.203H94l62.944-201.203zm-25.108 29.99-37.075 138.798h74.288zM377.291 115q12.243 0 22.342 2.424a110 110 0 0 1 19.367 6.58l-10.998 25.765q-7.47-3.186-13.834-4.502t-12.035-1.316q-12.243 0-16.808 4.987-4.566 4.917-4.566 16.276v15.445h36.868l-4.496 27.497h-32.372v110.54q0 24.726-6.778 39.687-6.71 15.03-19.091 23.964T305.286 398l-13.558-27.635q10.03-4.848 16.878-10.112 6.847-5.195 10.444-13.852 3.666-8.658 3.666-23.618V208.156h-24.14v-27.497h24.14v-16.345q0-20.917 13.627-35.116Q349.969 115 377.291 115"/></g></g></svg>